<svg xmlns="http://www.w3.org/2000/svg" viewBox="0 0 48.58 14.2"><g id="Layer_2" data-name="Layer 2"><g id="Layer_1-2" data-name="Layer 1"><path d="M21.78,14.1q2-1.11,5.4-3.44l5.31-3.82q-6.06-.46-8.29.09-2.7.57-7.54,3.73l-2,2.05c-.94.93-1.65,1.33-2.15,1.21a19.4,19.4,0,0,1-2.7-1.12L7.35,11.59l-2.79-.93A6.87,6.87,0,0,1,2,9.26,4.72,4.72,0,0,1,.56,7.12,6.76,6.76,0,0,1,0,4.7V3.58a23.73,23.73,0,0,0,3.82-.65c.79-.16,1.46-.31,2-.46a24.46,24.46,0,0,1,5.52-.75L22.9,1.44c.31,0,1.43-.09,3.35-.28S29.45,1,29.88,1c.25,0,1.74-.19,4.47-.56A17.33,17.33,0,0,1,38.73.05q1.49.18,5.4,3t4.28,4.09q.73,2.43-1.77,4.84a7.68,7.68,0,0,1-5.31,2.24c-.74,0-2.48-.19-5.21-.56s-4.38-.56-4.93-.56c-.93,0-2.46.09-4.57.28a27.36,27.36,0,0,0-4.84.74"/></g></g></svg>