<svg xmlns="http://www.w3.org/2000/svg" viewBox="0 0 173 109.01"><g id="Layer_2" data-name="Layer 2"><g id="Layer_1-2" data-name="Layer 1"><path d="M136.67,76.86c1.63,0,4,.88,7.08,2.62l6.59,3.69q5.37,2,11.23,4.3,9.27,3.54,10.25,4.77,2.69,3.84-.73,8a15.19,15.19,0,0,1-9.77,5.38q-1.45.15-17.08-1.54l-17.08-1.84q-6.6-.93-23.19-.77-13.9.15-23.92.77-2.19,0-13.67.92t-13.66,1.23l-19,3.53q-13.66,2-18.06.31Q12,106.7,7.08,101.77A34.63,34.63,0,0,1,1,94.39a11,11,0,0,1-1-3.23l17.08-3.07q10.26-1.7,17.09-2.46,3.66-.47,20.26-2.31,16.83-1.68,19.77-1.84,8-.47,18.3-.92,12.93-.47,18.79-.47,4.39,0,7.57-.15,6.09-.15,7.08-.62a26.83,26.83,0,0,0,5.12-1.23A25.46,25.46,0,0,1,136.67,76.86ZM122.13.07q4.64.48,22.36,6.2,18.1,5.91,20.64,7.72c1.18,1.15,1.63,3.06,1.35,5.71s-1.11,4.42-2.5,5.3q-4.23,3.12-28.42,3.37-9.36,0-33.08-.66-5.07.08-28.1.31-21.46.24-26.16.36a69.14,69.14,0,0,0-8.26.69,26.79,26.79,0,0,1-8.19.07q-7.21-2-15.17-11.63-6.57-8-8-12.59-1.7-2.49-3-4.8L55.72,1.34q44.72,1.11,50.23.6c.53-.05,3.17-.49,7.94-1.34A36.4,36.4,0,0,1,122.13.07ZM92.69,39.36q4.29,0,23.27,4.9t22.34,6.35q1.84,1,1.52,4.18t-2.38,4.08c-.05.51-1.44,1.35-4.16,2.5A18.6,18.6,0,0,1,128,63.3q-2,.57-17.27,1.13-5.86.16-17.21.53-9.8.36-35.2,4.83Q34.87,74,25.65,76.58L32.36,72c3.36-2.32,5.09-3.89,5.17-4.71q.22-2.15-7-7.23l-11-6.87a29.56,29.56,0,0,1-4.62-4.34,48.25,48.25,0,0,0-3.84-4.27q4.71-.29,22.35-1.22T56.15,42q1.17,0,18.09-1.51Q90,39.24,92.69,39.36Z"/></g></g></svg>