<svg xmlns="http://www.w3.org/2000/svg" viewBox="0 0 36.83 29.77"><g id="Layer_2" data-name="Layer 2"><g id="Layer_1-2" data-name="Layer 1"><path d="M3.32,0A34.53,34.53,0,0,0,8,4.6q3.63,3.27,4.56,3.91.84.47,5.77,3.82c3.23,2.29,5.12,3.63,5.68,4s1.92,1.09,4.28,2.51a39.76,39.76,0,0,0,4.19,2.43,8.21,8.21,0,0,1,2.61,1.86,5.75,5.75,0,0,1,1.76,2.7C35.47,26.32,33.36,27,30.5,28a63,63,0,0,1-6.33,1.77,12.21,12.21,0,0,1-6.88-1.49,29.8,29.8,0,0,1-6.24-4.94c-1-.93-2.11-2-3.35-3.35C6.14,18.29,5,17,4.25,16.05-4.74-1.6,3.32,0,3.32,0Z"/></g></g></svg>