<svg xmlns="http://www.w3.org/2000/svg" viewBox="0 0 146.09 129.32"><g id="Layer_2" data-name="Layer 2"><g id="Layer_1-2" data-name="Layer 1"><path d="M40.08,3.78c21.07-3,30.8,22.72,37,13A36.29,36.29,0,0,1,102.68,3.93c32-2.36,44.33,27.65,38.15,49.94-9.56,31.48-37.73,51.36-63.21,69.68-12.85,6.25-44.4-29-54.46-38.46C-4.23,61.19-3.68,4.06,40.08,3.78Z"/><path d="M40.07,3.59c1.75,6.56,7.12,3.83,11.42,2-2.25-4.31-9-8.91-11.42-2"/><path d="M51.64,5.09c-.26,6.82,5.45,5.77,10.16,5.56-.69-5-5.8-11.33-10.16-5.56"/><path d="M62.12,10.2c-2.6,6.21,3.58,7.61,8.15,8.38.11-4.94-1.82-12.34-8.15-8.38"/><path d="M70.62,18.15c-.56,10.64,10.37,3.3,9.29-3.84a7.12,7.12,0,0,0-3.09.44,13.73,13.73,0,0,0-5.09,2.82,2.88,2.88,0,0,1-1.11.58"/><path d="M79.52,13.91c5.94,3.64,7.69-1.93,9.82-6.16-4.8-1.75-12.59-.54-9.82,6.16"/><path d="M89.1,7.25c4.46,5.31,7.9.65,11.27-2.71C96.57,1.48,88.52-.08,89.1,7.25"/><path d="M100.3,4c2.56,6.44,7.5,3,11.59.58-3-4-9.8-7.64-11.59-.58"/><path d="M112,4c.7,6.7,6.23,4.94,10.9,3.91C121.4,3.26,115.49-2.43,112,4"/><path d="M123.11,7.44c-1.53,6.75,4.2,6.65,8.86,7.44.29-5.11-3.37-12.24-8.86-7.44"/><path d="M132.38,14.51c-3.77,5.83,1.63,7.72,5.87,10,1.87-4.84.91-12.55-5.87-10"/><path d="M138.75,24.27c-5.41,4.4-.71,8,2.74,11.28,2.89-3.82,4.63-11.69-2.74-11.28"/><path d="M142,35.47c-6.3,2.66-2.86,7.58-.28,11.61,3.85-3,7.32-10.18.28-11.61"/><path d="M142.3,47.14C135.57,48,137.55,54,139,58.29c4.4-2,9.78-7.85,3.27-11.15"/><path d="M139.56,58.48c-6.82-.74-6.13,5.84-5.31,10.35,4.59-1.28,10.85-5.75,5.31-10.35"/><path d="M134.73,69.1c-6.63-1.86-7,4.82-6.83,9.44,4.71-.69,11.52-4,6.83-9.44"/><path d="M128.35,78.87c-6.94-2.93-7.62,5-7.91,8.56,3.63-.23,12.06-1.89,7.91-8.56"/><path d="M120.84,87.8c-6.1-3.35-8,3.27-8.57,7.9,4.7.08,11.88-1.6,8.57-7.9"/><path d="M112.65,96.1c-6.45-4-8.32,3.85-9,7.38,3.62.18,12.09-.2,9-7.38"/><path d="M104,103.9c-6.24-4.37-8.54,3.4-9.41,6.9,3.61.34,12.05.42,9.41-6.9"/><path d="M94.91,111.24c-6-4.66-8.69,3-9.67,6.51,3.59.46,12,.9,9.67-6.51"/><path d="M85.56,118.2c-5.66-4.48-8.23,1.56-9.89,6.08,4.56,1.17,11.9.61,9.89-6.08"/><path d="M75.92,124.78a10.83,10.83,0,0,1-3-3.39c-1.84-.14-5.66-.42-7.34-.31,0,6.11,8.93,13,10.3,3.7"/><path d="M65.3,121.53c2.68-7.16-5.49-7.4-9.11-7.28.66,3.56,2.72,11.67,9.11,7.28"/><path d="M55.86,114.7c2.69-6.46-4.21-7.63-8.88-7.57.55,4.66,3,11.52,8.88,7.57"/><path d="M46.63,107.57c2.94-6.34-3.86-7.77-8.52-8,.3,4.69,2.49,11.68,8.52,8"/><path d="M37.74,100c3.48-6.74-4.48-8-8-8.43.07,3.63,1.13,12,8.05,8.43"/><path d="M29.3,92c3.9-6.49-3.91-8.25-7.44-9-.21,3.64.29,12.14,7.44,9"/><path d="M21.44,83.36c4.09-5.6-2.13-8.28-6.56-9.63-.92,4.65-.13,12.1,6.56,9.63"/><path d="M14.42,74c4.67-5.07-1.06-8.4-5.21-10.41C7.55,68.1,7.45,75.74,14.42,74"/><path d="M8.7,63.86c5.4-4.23.36-8.38-3.32-11.14C2.88,56.8,1.52,64.42,8.7,63.86"/><path d="M4.84,52.85c6-3.09,2.07-8-.9-11.57C.38,44.8-2.28,52,4.84,52.85"/><path d="M3.39,41.27c6.57-1.5,4.17-6.86,2.32-11.36-4.43,2.36-9,8.56-2.32,11.36"/><path d="M5.18,29.74c6.71.43,5.9-5.39,5.5-10.2-4.94.9-11.18,5.62-5.5,10.2"/><path d="M10.22,19.23c6.51,2.34,7.12-3.46,8.34-8-4.82-.77-12.54,2-8.34,8"/><path d="M18.23,10.76c5.25,4.19,7.84-.88,10.49-4.89-4.34-2.3-12.52-2.29-10.49,4.89"/><path d="M28.55,5.35c3.47,5.7,7.93,1.84,11.55-1.2C36.64.74,29-2.06,28.55,5.35"/></g></g></svg>